# xmcd
#
# Track frame offsets:
#	150
#	21290
#	38147
#	55317
#	69302
#	89375
#	107817
#	125840
#	144945
#	160722
#	178895
#	194630
#
# Disc length: 2839 seconds
#
# Revision: 1
# Processed by: cddbd v1.5.1PL0 Copyright (c) Steve Scherf et al.
# Submitted via: audiograbber 1.82.02
#
DISCID=ab0b150c
DTITLE=Lyn Bowtell - Heart's In The Country
DYEAR=1900
DGENRE=Country
TTITLE0=Where In The World
TTITLE1=Too Much Love
TTITLE2=Take My Chances
TTITLE3=Sweet Summer Rain
TTITLE4=New Melody
TTITLE5=Heart's In The Country
TTITLE6=Just A Child
TTITLE7=Everytime I Turn
TTITLE8=Wake Up
TTITLE9=Pride Runs River Deep
TTITLE10=Stand Tall
TTITLE11=Vincent
EXTD=
EXTT0=
EXTT1=
EXTT2=
EXTT3=
EXTT4=
EXTT5=
EXTT6=
EXTT7=
EXTT8=
EXTT9=
EXTT10=
EXTT11=
PLAYORDER=
